<?xml version="1.0" standalone="no"?>
<!DOCTYPE svg PUBLIC "-//W3C//DTD SVG 20010904//EN"
 "http://www.w3.org/TR/2001/REC-SVG-20010904/DTD/svg10.dtd">
<svg version="1.0" xmlns="http://www.w3.org/2000/svg"
 width="407.000000pt" height="407.000000pt" viewBox="0 0 407.000000 407.000000"
 preserveAspectRatio="xMidYMid meet">
<metadata>
Created by potrace 1.14, written by Peter Selinger 2001-2017
</metadata>
<g transform="translate(0.000000,407.000000) scale(0.100000,-0.100000)"
fill="#000000" stroke="none">
<path d="M2291 3618 c-97 -26 -157 -95 -289 -334 -54 -98 -132 -237 -173 -309
-106 -183 -210 -368 -254 -450 -33 -60 -82 -143 -91 -153 -3 -5 -149 148 -260
273 -209 235 -433 529 -615 807 -30 47 -74 69 -141 70 -62 2 -73 -10 -83 -90
-4 -31 -8 -66 -10 -77 -2 -11 -7 -40 -10 -65 -13 -98 -49 -336 -59 -390 -3
-14 -8 -50 -11 -80 -3 -30 -7 -66 -10 -80 -2 -14 -6 -43 -10 -65 -3 -22 -10
-69 -16 -105 -5 -35 -12 -82 -14 -105 -3 -22 -7 -51 -10 -64 -2 -14 -9 -61
-15 -105 -6 -45 -13 -92 -15 -106 -2 -14 -11 -74 -20 -135 -22 -156 -22 -154
-49 -236 -62 -186 -136 -518 -136 -609 0 -51 19 -110 42 -133 51 -50 193 -103
353 -131 17 -3 39 -8 50 -10 11 -2 40 -7 65 -11 25 -4 97 -20 160 -37 63 -16
144 -36 180 -42 111 -22 250 -56 309 -75 31 -11 79 -22 106 -26 28 -4 149 -32
269 -61 252 -62 403 -96 531 -120 50 -9 97 -17 105 -19 27 -5 164 -25 210 -30
138 -15 177 -18 305 -19 77 -1 146 -5 153 -10 28 -17 110 -18 143 -2 28 14 68
16 263 14 126 -1 253 -5 280 -10 28 -4 71 -10 96 -13 25 -3 79 -10 121 -17 71
-10 143 -6 153 10 6 9 14 88 21 197 4 50 8 106 10 125 2 19 6 76 9 125 6 96
14 208 21 290 2 28 6 91 10 140 3 50 8 122 11 160 2 39 7 106 9 150 9 145 15
249 20 330 3 44 7 123 10 175 3 52 7 129 10 170 2 41 7 136 11 210 3 74 8 158
9 185 2 28 6 136 10 242 l7 191 -26 17 c-29 19 -106 22 -144 5 -15 -6 -98 -91
-185 -188 -86 -98 -172 -193 -190 -212 -17 -20 -84 -94 -147 -165 -63 -72
-117 -132 -120 -135 -3 -3 -46 -50 -95 -105 -50 -55 -92 -102 -95 -105 -3 -3
-39 -43 -80 -90 -41 -46 -86 -95 -100 -108 -23 -22 -25 -23 -28 -6 -2 11 -12
64 -22 119 -11 55 -21 112 -24 128 -4 24 -16 88 -32 172 -2 15 -18 92 -34 173
-36 187 -68 357 -74 402 -2 19 -8 58 -11 85 -37 280 -88 406 -186 456 -45 22
-127 30 -178 17z m94 -174 c9 -14 23 -47 30 -72 13 -45 17 -70 31 -207 3 -33
19 -125 35 -205 33 -165 35 -185 10 -115 -121 338 -191 541 -191 553 0 18 41
71 56 71 7 1 19 -11 29 -25z m-151 -454 c32 -91 61 -174 66 -185 5 -11 23 -63
40 -115 17 -52 35 -104 40 -115 5 -11 136 -382 290 -825 155 -443 301 -852
325 -910 24 -58 50 -128 58 -157 14 -47 14 -53 -2 -67 -29 -26 -67 -20 -79 12
-6 15 -35 97 -65 182 -105 297 -284 784 -307 835 -5 11 -29 74 -55 140 -143
372 -466 1157 -485 1180 -11 13 99 210 110 198 4 -4 33 -82 64 -173z m-1480
-95 c190 -538 361 -993 527 -1408 146 -365 269 -660 287 -691 2 -4 -8 -5 -24
-2 -16 4 -38 8 -49 11 -11 2 -51 12 -89 22 l-70 18 -48 160 c-181 593 -507
1704 -523 1779 -3 11 -16 60 -31 110 -44 154 -35 154 20 1z m-189 -120 c234
-821 347 -1207 495 -1685 45 -147 54 -186 42 -188 -24 -6 -35 14 -68 130 -17
62 -69 235 -114 383 -45 149 -93 306 -106 350 -12 44 -41 139 -62 210 -66 213
-142 481 -222 781 -19 71 -24 135 -12 158 3 5 11 -13 19 -40 7 -27 20 -71 28
-99z m1432 -133 c28 -70 107 -264 176 -432 182 -447 403 -1033 562 -1487 l43
-123 -53 0 c-51 0 -52 1 -68 38 -9 20 -39 102 -65 182 -55 164 -61 180 -272
745 -84 226 -163 439 -175 475 -59 168 -237 636 -245 644 -9 9 27 86 39 86 3
0 29 -58 58 -128z m1783 16 c16 -32 27 -58 26 -58 -7 0 -86 132 -86 143 1 18
28 -21 60 -85z m-108 -198 c61 -117 144 -301 130 -285 -26 27 -222 401 -217
414 8 19 18 3 87 -129z m-2568 68 c-3 -5 45 -111 107 -236 147 -297 283 -585
379 -802 21 -47 49 -110 63 -140 31 -69 149 -345 217 -508 28 -68 49 -126 46
-129 -3 -3 -31 1 -63 8 l-57 14 -34 80 c-19 44 -52 123 -74 175 -114 270 -364
905 -474 1200 -69 184 -129 346 -135 360 -11 24 -10 24 10 6 11 -10 18 -23 15
-28z m895 -648 c117 -316 216 -584 221 -595 25 -56 125 -337 161 -455 23 -74
50 -152 60 -172 l19 -38 -31 3 c-23 2 -33 8 -35 22 -2 11 -17 49 -35 85 -133
273 -435 988 -596 1410 l-74 194 22 41 c50 91 62 108 69 94 4 -8 103 -273 219
-589z m1487 492 c17 -31 52 -97 79 -147 26 -49 51 -94 55 -100 14 -18 50 -85
46 -85 -2 0 -37 46 -77 103 -40 56 -97 135 -127 175 -53 70 -54 73 -37 92 10
11 21 20 24 20 3 0 20 -26 37 -58z m-3031 -79 c26 -93 235 -792 256 -857 10
-33 17 -61 15 -63 -9 -9 -222 604 -267 767 -7 25 -19 53 -27 62 -10 11 -12 30
-9 60 4 24 6 53 6 66 1 36 8 26 26 -35z m2928 -153 c46 -64 146 -206 221 -317
119 -176 135 -205 130 -231 -5 -23 -1 -33 16 -45 17 -12 21 -23 18 -53 l-3
-39 -21 35 c-11 19 -78 132 -149 250 -71 118 -133 224 -139 235 -30 55 -151
252 -165 269 -9 10 -11 17 -4 15 6 -2 49 -56 96 -119z m-1836 26 c2 -1 41 -99
87 -217 124 -318 324 -792 433 -1029 51 -109 85 -186 103 -227 l19 -42 -21 8
c-13 5 -30 29 -44 62 -216 523 -414 968 -627 1408 l-26 53 37 -7 c20 -4 38 -8
39 -9z m1797 -351 c79 -140 369 -614 384 -628 13 -12 19 -28 17 -45 -2 -15 -5
-49 -6 -75 -1 -26 -6 -44 -10 -40 -4 4 -26 44 -49 88 -52 99 -93 174 -183 335
-38 69 -86 154 -105 190 -19 36 -45 81 -57 100 -12 19 -25 42 -29 50 -4 8 -12
24 -19 35 -7 11 -36 63 -66 115 -30 52 -62 107 -72 121 -17 24 -17 27 -2 42
16 15 23 6 101 -126 47 -78 90 -151 96 -162z m-65 -775 c152 -324 201 -433
196 -438 -3 -3 -21 -5 -40 -4 -19 0 -64 1 -100 1 -58 1 -65 3 -65 21 0 11 -11
46 -24 78 -14 32 -42 109 -64 172 -22 63 -68 194 -102 290 -240 682 -225 632
-203 648 16 12 32 -16 183 -320 91 -183 190 -385 219 -448z m-2909 748 c0 -28
201 -558 274 -722 14 -33 25 -60 24 -61 -2 -1 -22 2 -45 7 -37 8 -42 12 -41
36 1 40 -32 135 -52 149 -10 7 -23 27 -31 45 -7 18 -48 107 -92 198 -84 176
-84 177 -61 295 2 11 5 32 6 47 2 25 18 30 18 6z m3034 -541 c47 -87 86 -160
86 -162 0 -2 23 -39 50 -82 82 -128 140 -250 134 -283 -5 -21 -1 -31 16 -43
18 -13 21 -22 16 -54 -3 -21 -5 -40 -6 -43 0 -3 -39 78 -86 180 -47 102 -98
212 -114 245 -15 33 -54 114 -85 180 -32 66 -71 147 -87 180 -56 111 -10 41
76 -118z m-3049 -132 c10 -22 20 -43 22 -48 7 -13 -56 2 -97 23 -20 10 -45 30
-54 45 -21 31 -28 98 -17 145 5 19 12 48 16 65 6 28 10 23 59 -80 29 -61 61
-128 71 -150z"/>
</g>
</svg>
