<svg id="Group_17" data-name="Group 17" xmlns="http://www.w3.org/2000/svg" xmlns:xlink="http://www.w3.org/1999/xlink" width="188" height="139.448" viewBox="0 0 188 139.448">
  <defs>
    <clipPath id="clip-path">
      <rect id="Rectangle_68" data-name="Rectangle 68" width="188" height="139.448" fill="none"/>
    </clipPath>
  </defs>
  <g id="Group_16" data-name="Group 16" clip-path="url(#clip-path)">
    <path id="Path_145" data-name="Path 145" d="M101.422,133.3c.765-.128,18.383-3.155,20.614-21.156a41.983,41.983,0,0,0-7.518-28.993c4.014,8.921,3.951,18.383,1.752,24.6-5.129,14.368-18.7,16.439-23.545,16.727.35,8.825.987,48.9-15.643,55.884-7.232,3.027-18.957,4.779-30.554,4.779-10.642,0-21.218-1.5-28.068-4.843a27.666,27.666,0,0,1-2.772-1.593c2.517,4.492,8.379,9.941,22.238,11.82,29.661,4.046,48.493,1.243,54.417-8.124,6.819-10.7,7.742-47.218,7.742-47.568a1.57,1.57,0,0,1,1.338-1.529Z" transform="translate(-9.975 -52.877)"/>
    <path id="Path_146" data-name="Path 146" d="M9.852,139.623c13.668,6.659,42.692,5.544,56.008-.031,16.249-6.786,13.636-53.94,13.6-54.384A1.559,1.559,0,0,1,79.912,84a1.542,1.542,0,0,1,1.21-.478c.669.031,16.663.637,22.112-14.656,2.262-6.372,1.976-17.428-4.014-26.634C92.179,31.492,78.83,25.12,60.54,23.846,14.152,20.627,1.087,57.393.133,67.43c-.542,5.575.573,9.813,3.314,12.585,4.206,4.27,10.961,3.823,11.023,3.823H14.6a1.561,1.561,0,0,1,1.306.7,1.59,1.59,0,0,1,.128,1.593c-.159.35-16.089,33.995-12.425,47.375.064.128.128.255.191.414.733,2.135,2.739,4.078,6.053,5.7Z" transform="translate(0 -15.037)"/>
    <path id="Path_147" data-name="Path 147" d="M310.636,199.537a29.152,29.152,0,0,1-5.925,2.04c1.434,7.2,6.722,36.033,1.37,49.254-1.817,4.524-5.766,7.359-10.482,9.111,15.707,1.688,49.512,3.409,63.21-11.31,16.058-17.236,8.029-45.4,6.117-51.3-10.418,1.816-48.682,2.168-54.289,2.2Z" transform="translate(-187.966 -125.482)"/>
    <path id="Path_148" data-name="Path 148" d="M218.243,127.815c5.607-13.987-1.783-48.649-1.88-49a1.6,1.6,0,0,1,1.37-1.912c.573-.064,14.018-1.943,17.236-14.209,3.6-13.731-.7-45.147-36.958-54.639C180.647,3.5,168.445,6.591,162.073,9.235c.606.031,1.179.031,1.783.064a80.226,80.226,0,0,1,12.9,1.88c5.989,1.4,12.011,2.963,17.428,6.022a48.526,48.526,0,0,1,12.967,10.928c8.22,9.717,12.713,22.462,11.151,35.206C216.171,80.7,200.942,85.8,196.354,86.943c-.223,6.722-1.593,37.529-8.22,47.95a17.182,17.182,0,0,1-1.912,2.421c8.126.637,27.784,1.018,32.021-9.5Z" transform="translate(-103.06 -3.644)"/>
    <path id="Path_149" data-name="Path 149" d="M325.672,10.112C306.556-.625,273.582-.689,253.508.523c1.146.255,2.262.478,3.441.8C295.53,11.45,300.056,45.126,296.2,59.847a20.493,20.493,0,0,1-7.073,10.96c20.008-.223,46.581-.956,49.957-2.389,5.766-2.421,9.558-9.144,10.067-18,.67-12.075-5.034-29.95-23.48-40.3Z" transform="translate(-161.202 0)"/>
  </g>
</svg>
