<svg id="Group_13" data-name="Group 13" xmlns="http://www.w3.org/2000/svg" xmlns:xlink="http://www.w3.org/1999/xlink" width="132.964" height="113.695" viewBox="0 0 132.964 113.695">
  <defs>
    <clipPath id="clip-path">
      <rect id="Rectangle_66" data-name="Rectangle 66" width="132.964" height="113.695" fill="none"/>
    </clipPath>
  </defs>
  <g id="Group_12" data-name="Group 12" clip-path="url(#clip-path)">
    <path id="Path_133" data-name="Path 133" d="M70.408,182.877a4.676,4.676,0,1,0,4.687,4.687,4.684,4.684,0,0,0-4.687-4.687" transform="translate(-48.794 -135.776)"/>
    <path id="Path_134" data-name="Path 134" d="M384.835,230.037a3.155,3.155,0,1,0,3.177,3.155,3.15,3.15,0,0,0-3.177-3.155" transform="translate(-283.375 -170.789)"/>
    <path id="Path_135" data-name="Path 135" d="M314.88,125a2.389,2.389,0,1,1-2.388-2.412A2.4,2.4,0,0,1,314.88,125" transform="translate(-230.234 -91.012)"/>
    <path id="Path_136" data-name="Path 136" d="M111.851,90.962a3.38,3.38,0,1,1-3.38-3.38,3.38,3.38,0,0,1,3.38,3.38" transform="translate(-78.023 -65.025)"/>
    <path id="Path_137" data-name="Path 137" d="M132.964,177.789V160.414L0,143.061v59.5l20.53,2.682a12.721,12.721,0,0,1,25.219,2.366c0,.316,0,.609-.022.924l37.928,4.958a9.712,9.712,0,0,1,18.953,2.479l30.356,3.944V197.081a9.711,9.711,0,0,1,0-19.291ZM14.58,188.719a5.5,5.5,0,1,1,5.5-5.5,5.506,5.506,0,0,1-5.5,5.5m7.032-23.8A6.93,6.93,0,1,1,28.553,158a6.939,6.939,0,0,1-6.941,6.919m44.8,24.926a9.522,9.522,0,1,1,9.511-9.533,9.551,9.551,0,0,1-9.511,9.533m35.043-15.821a5.409,5.409,0,1,1,5.431-5.409,5.41,5.41,0,0,1-5.431,5.409m13.949,31.19a4.665,4.665,0,1,1,4.642-4.665,4.669,4.669,0,0,1-4.642,4.665" transform="translate(0 -106.215)"/>
    <path id="Path_138" data-name="Path 138" d="M227.572,27.908a4.44,4.44,0,1,0,4.44,4.44,4.464,4.464,0,0,0-4.44-4.44" transform="translate(-165.663 -20.72)"/>
    <path id="Path_139" data-name="Path 139" d="M47.267,286.387a3.246,3.246,0,1,0,3.246,3.246A3.246,3.246,0,0,0,47.267,286.387Z" transform="translate(-32.684 -212.626)"/>
    <path id="Path_140" data-name="Path 140" d="M236.887,259.517a7.268,7.268,0,1,0,7.257,7.257,7.272,7.272,0,0,0-7.257-7.257" transform="translate(-170.471 -192.676)"/>
    <path id="Path_141" data-name="Path 141" d="M120.928,41.827a5.436,5.436,0,0,1-8.721-4.3,5.5,5.5,0,0,1,.676-2.614L96.635,20.891a8.473,8.473,0,0,1-13.522-6.8,8.517,8.517,0,0,1,.992-4.011L73.129.608C26.861-4.8,6.308,27.494,2.365,34.66l129.9,16.948ZM32.2,31.573a5.634,5.634,0,1,1,5.634-5.634A5.636,5.636,0,0,1,32.2,31.573M63.662,18.322a6.693,6.693,0,1,1,6.693-6.693,6.709,6.709,0,0,1-6.693,6.693M84.013,38.65a4.665,4.665,0,1,1,4.642-4.665,4.654,4.654,0,0,1-4.642,4.665" transform="translate(-1.756 0)"/>
    <path id="Path_142" data-name="Path 142" d="M443.6,359.315a2.389,2.389,0,1,1-2.389-2.411,2.4,2.4,0,0,1,2.389,2.411" transform="translate(-325.798 -264.981)"/>
  </g>
</svg>
