<svg id="Group_11" data-name="Group 11" xmlns="http://www.w3.org/2000/svg" xmlns:xlink="http://www.w3.org/1999/xlink" width="69.977" height="49.769" viewBox="0 0 69.977 49.769">
  <defs>
    <clipPath id="clip-path">
      <rect id="Rectangle_65" data-name="Rectangle 65" width="69.977" height="49.769" fill="none"/>
    </clipPath>
  </defs>
  <g id="Group_10" data-name="Group 10" clip-path="url(#clip-path)">
    <path id="Path_117" data-name="Path 117" d="M43.169,93.889a7.838,7.838,0,0,1-4.687-1.368c-1.665,3.045-4.211,5.828-8.79,5.828a13.5,13.5,0,0,1-2.117-.178c-2.938-.476-4.9-1.736-5.852-3.723-.036-.083-.071-.178-.107-.262a9.261,9.261,0,0,1-5.5,1.915,5.9,5.9,0,0,1-3.14-.821c-1.178-.725-2.974-2.628-1.677-7.1C13,82.3,19.558,76.987,24.91,75.238c2.914-.952,5.352-.833,6.863.345,3.425,2.641,2.438,7.7,1.594,10.407.583-.392,1.178-.749,1.772-1.082a13.806,13.806,0,0,1,4.46-9.718,14.855,14.855,0,0,1,11.133-4.008c1.475,0,2.652-.012,3.425-.595s1.237-.963,1.582-1.249c-.333-.595-1.594-2.45-5.1-3.83a19.342,19.342,0,0,1-4.163-2.652c-3.771-2.831-8.945-6.72-18.115-5.542C18.333,58.6,11.791,66.342,6.212,74.525c-4.044,5.935-6.839,10.336-6.09,13,.321,1.13,1.273,2.022,3,2.8a33.176,33.176,0,0,1,4.294,2.438c3.842,2.438,8.207,5.21,20.268,6.209,11.609.963,17.7-3.366,20.16-5.793-.571.155-1.154.309-1.784.428a16.208,16.208,0,0,1-2.89.286Z" transform="translate(0 -49.336)"/>
    <path id="Path_118" data-name="Path 118" d="M361.015,9.488l3.009-2.581a.634.634,0,0,1,.63-.1c.761.333,2.962,1.059,4.044.44a1.374,1.374,0,0,0,.642-1.13,1.316,1.316,0,0,0-.333-1.178c-.762-.737-2.652-.63-3.247-.547a.593.593,0,0,1-.583-.25.6.6,0,0,1-.036-.63c.273-.487.892-1.939.452-2.771a1.789,1.789,0,0,0-1.522-.737,1.578,1.578,0,0,0-1.392.452c-.868.987-.618,3.319-.44,4.127a.577.577,0,0,1-.19.571l-2.831,2.486a6.615,6.615,0,0,1,1.8,1.843Z" transform="translate(-310.389 0)"/>
    <path id="Path_119" data-name="Path 119" d="M328.72,64.973a6.851,6.851,0,0,1,1.4-1.249c.464-.321.725-.523.762-.761.059-.511-.8-1.736-1.879-2.45-.643-.416-1.07-.452-1.237-.357a2.9,2.9,0,0,0-.678.523,24.108,24.108,0,0,1-2,1.665c1.106.725,2.093,1.463,3.009,2.153C328.3,64.664,328.506,64.818,328.72,64.973Z" transform="translate(-280.901 -51.941)"/>
    <path id="Path_120" data-name="Path 120" d="M61.882,79.678a5.365,5.365,0,0,0-5.626.583c-2.486,1.713-3.83,6.958-4.425,10.039A46.536,46.536,0,0,1,61.882,79.678Z" transform="translate(-44.785 -68.382)"/>
    <path id="Path_121" data-name="Path 121" d="M450.037,89.888c-.762-.738-2.652-.643-3.247-.547a.594.594,0,0,1-.583-.25.6.6,0,0,1-.036-.63c.273-.487.892-1.939.452-2.771a1.789,1.789,0,0,0-1.522-.738,1.547,1.547,0,0,0-1.392.452c-.868.975-.618,3.319-.44,4.127a.577.577,0,0,1-.19.571l-2.831,2.486a6.7,6.7,0,0,1,1.784,1.832l3.009-2.581a.634.634,0,0,1,.63-.1c.762.333,2.962,1.059,4.044.44a1.374,1.374,0,0,0,.643-1.13,1.266,1.266,0,0,0-.321-1.167Z" transform="translate(-380.403 -73.393)"/>
    <path id="Path_122" data-name="Path 122" d="M99.4,212.729c.773,1.617,2.438,2.641,4.972,3.057,7.41,1.213,9.765-4.734,11.478-9.075a15.938,15.938,0,0,1,1.7-3.544,3.127,3.127,0,0,0,.273-.428,5.814,5.814,0,0,0-2.26.5c-3.045,1.094-8.481,4.222-10.075,7.934a.6.6,0,1,1-1.094-.476,12.8,12.8,0,0,1,3.866-4.639c.226-.535,3.247-7.755-.595-10.729-1.189-.928-3.247-.975-5.769-.154-5.055,1.654-11.24,6.637-12.834,12.132-.809,2.8-.4,4.782,1.166,5.757,1.951,1.2,5.59.583,7.624-1.308-.762-3.854,1.713-8.29,1.832-8.5a.591.591,0,0,1,.809-.226.6.6,0,0,1,.226.809c-.047.059-3.009,5.364-1.32,8.9Z" transform="translate(-76.602 -168.141)"/>
    <path id="Path_123" data-name="Path 123" d="M290.249,145.384c-.643-.416-1.07-.452-1.225-.357a3.251,3.251,0,0,0-.678.524,22.8,22.8,0,0,1-2.319,1.9c-1.094.821-2.509.833-4.139.833A13.659,13.659,0,0,0,271.539,152a12.545,12.545,0,0,0-4.02,8.183,13.548,13.548,0,0,1,4.591-1.522,1.372,1.372,0,0,1,1.379.595c.357.69-.25,1.487-.452,1.749a15.22,15.22,0,0,0-1.535,3.271c-.381.963-.809,2.034-1.32,3.116,1.57,1.213,3.794,1.535,6.815.975,10.61-1.986,11.335-10.527,11.68-14.642.036-.357.059-.678.083-.963a5.253,5.253,0,0,1,2.581-4.151c.476-.333.773-.547.8-.773.06-.5-.8-1.737-1.891-2.451Z" transform="translate(-231.154 -125.276)"/>
  </g>
</svg>
