<svg id="Group_15" data-name="Group 15" xmlns="http://www.w3.org/2000/svg" xmlns:xlink="http://www.w3.org/1999/xlink" width="117.359" height="136.13" viewBox="0 0 117.359 136.13">
  <defs>
    <clipPath id="clip-path">
      <rect id="Rectangle_67" data-name="Rectangle 67" width="117.359" height="136.13" fill="none"/>
    </clipPath>
  </defs>
  <g id="Group_14" data-name="Group 14" clip-path="url(#clip-path)">
    <path id="Path_143" data-name="Path 143" d="M100.195,30.712a2.347,2.347,0,0,1-.636,4.058A15.913,15.913,0,0,0,88.58,48.265a44.9,44.9,0,0,1,19.164-9.375,2.292,2.292,0,0,1,.429-.04,2.346,2.346,0,0,1,1.539.575c.3.262,6.432,5.765,6.018,18.732,8.007-9.485,6.01-16.3,5.906-16.625a2.373,2.373,0,0,1,1.42-2.936c5.864-2.155,14.639,2.137,19.862,5.259-1.422-5.246-5.483-7.83-8.124-9.511-1.62-1.031-2.79-1.776-2.944-3.273a2.655,2.655,0,0,1,.805-2.179c3.114-3.026,12.74-2.47,20.042-1.516-6.277-5.3-17.581-12.282-29.589-7.294a2.346,2.346,0,0,1-3.128-2.9c.863-2.605,2.646-7.987.289-16.871-1.829-.848-9.331.111-11.142,2.259-.515.9.044,5.152.377,7.695a50.081,50.081,0,0,1,.648,8.589,2.346,2.346,0,0,1-2.837,2.172C94.873,18.343,83.6,24.534,76.958,29.483c8.023-1.177,19.043-2.031,23.237,1.23Z" transform="translate(-57.003 0)"/>
    <path id="Path_144" data-name="Path 144" d="M96,121.594a69.543,69.543,0,0,0-14.087-.732c3.725,2.557,9.481,7.567,9.2,17.145a2.347,2.347,0,0,1-3.715,1.837c-4.548-3.265-12.7-7.726-17.719-7.726h-.128c.322,4.31-.753,13.373-12.342,23.7a2.347,2.347,0,0,1-3.869-2.179c2.242-12.109-1.328-18.3-2.976-20.41-3.428.894-13.2,4.028-19.489,11.925a2.347,2.347,0,0,1-4.178-1.316c-.708-11.284,3.6-17.638,8.733-21.218a83.254,83.254,0,0,0-16.653,1.237A58.679,58.679,0,1,0,96,121.6Z" transform="translate(0 -89.432)"/>
  </g>
</svg>
