<svg id="Group_27" data-name="Group 27" xmlns="http://www.w3.org/2000/svg" xmlns:xlink="http://www.w3.org/1999/xlink" width="533.156" height="361.236" viewBox="0 0 533.156 361.236">
  <defs>
    <clipPath id="clip-path">
      <rect id="Rectangle_108" data-name="Rectangle 108" width="533.156" height="361.236" fill="#f5f4f4"/>
    </clipPath>
  </defs>
  <g id="Group_26" data-name="Group 26" clip-path="url(#clip-path)">
    <path id="Path_190" data-name="Path 190" d="M266.576,0a25.726,25.726,0,0,0-10.863,49.055c-112.9,5.651-202.7,98.968-202.69,213.269.082,2.664.223,5.335.407,8H479.86c.144-2.661.23-5.332.273-8,0-114.3-89.8-207.62-202.69-213.269h0A25.727,25.727,0,0,0,266.592,0Zm-1.1,285.019-213.19.109c-4.574,0-20.34,7.731-33.414,18.715A113.051,113.051,0,0,0,0,324.188v29.391c0,4.243,3.684,7.657,8.258,7.657H524.9c4.574,0,8.258-3.415,8.258-7.657V324.188a113.1,113.1,0,0,0-18.867-20.344c-13.074-10.984-28.84-18.711-33.414-18.715L267.7,285.02Z" fill="#f5f4f4"/>
  </g>
</svg>
